<svg id="Layer_1" data-name="Layer 1" xmlns="http://www.w3.org/2000/svg" viewBox="0 0 140.69 73.47"><defs><style>.cls-1{fill:none;stroke:#ed1c24;stroke-linecap:round;stroke-linejoin:round;stroke-width:2px;}.cls-2{fill:#ed1c24;}.cls-3{fill:#231f20;}</style></defs><path class="cls-1" d="M283.31,441.68,268.4,456.6l-31.17-31.17C212.79,401,244,369.82,268.4,394.26c24.87-24.87,56,6.3,31.17,31.17" transform="translate(-227.35 -384.13)"/><path class="cls-2" d="M275.86,408.19a1.48,1.48,0,0,1,1,.31,1.6,1.6,0,0,1,.53.84,2.92,2.92,0,0,1,0,1.19,3.91,3.91,0,0,1-.47,1.34c-.05.06-.12.06-.2,0a.37.37,0,0,1-.16-.21.82.82,0,0,0-.34-.83,2.05,2.05,0,0,0-1.31-.34,5.52,5.52,0,0,0-3.33,1.28,16.91,16.91,0,0,0-3.24,3.37,32.26,32.26,0,0,0-2.95,4.82,46.27,46.27,0,0,0-2.38,5.61,45.21,45.21,0,0,0-1.59,5.74,26,26,0,0,0-.59,5.19q0,1.26.69,1.26a1.42,1.42,0,0,0,.95-.42,8.56,8.56,0,0,0,1.07-1.26.16.16,0,0,1,.22,0,.25.25,0,0,1,.06.27,8.31,8.31,0,0,1-1.9,2.09,3.34,3.34,0,0,1-2,.84,1.18,1.18,0,0,1-1.07-.46,2.12,2.12,0,0,1-.3-1.17,19.24,19.24,0,0,1,.8-4.93,55.51,55.51,0,0,1,2.16-6.24,65,65,0,0,1,3.13-6.55,51.44,51.44,0,0,1,3.69-5.89,24.29,24.29,0,0,1,3.85-4.25A5.79,5.79,0,0,1,275.86,408.19Z" transform="translate(-227.35 -384.13)"/><path class="cls-2" d="M270.65,428.59a2.49,2.49,0,0,1,2.1.88,3.21,3.21,0,0,1,.69,2,7.28,7.28,0,0,1-.63,3,10.58,10.58,0,0,1-1.53,2.48,7.55,7.55,0,0,1-2,1.67,3.82,3.82,0,0,1-1.89.61,2.54,2.54,0,0,1-2.08-.86,3.34,3.34,0,0,1-.7-2.2,7.12,7.12,0,0,1,.5-2.55,10.55,10.55,0,0,1,1.33-2.48,8,8,0,0,1,1.92-1.88A3.89,3.89,0,0,1,270.65,428.59ZM268.44,438a2.49,2.49,0,0,0,2.11-1.36,6.94,6.94,0,0,0,.87-3.75,4.14,4.14,0,0,0-.48-2.09,1.56,1.56,0,0,0-1.42-.84,2.39,2.39,0,0,0-2.09,1.3,7.25,7.25,0,0,0-.81,3.81,3.87,3.87,0,0,0,.51,2.2A1.51,1.51,0,0,0,268.44,438Z" transform="translate(-227.35 -384.13)"/><path class="cls-2" d="M278.64,438.72a12.18,12.18,0,0,1-1.31.4,5.82,5.82,0,0,1-1.47.19c-.33,0-.42-.18-.29-.55a27.39,27.39,0,0,0,1.17-3.83,35.37,35.37,0,0,0,.69-3.71c.08-1-.07-1.46-.45-1.46s-.9.32-1.49,1a.27.27,0,0,1-.32,0,.24.24,0,0,1,0-.29,7.2,7.2,0,0,1,1.63-1.28,3.65,3.65,0,0,1,1.84-.52.82.82,0,0,1,.8.37,2,2,0,0,1,.21,1,12.79,12.79,0,0,1-.17,1.88q-.15,1.1-.42,2.28c-.17.8-.36,1.58-.56,2.35s-.4,1.46-.59,2.07a6.53,6.53,0,0,0,2.24-1.09,11.24,11.24,0,0,0,2-1.84,9.7,9.7,0,0,0,1.43-2.28,6.18,6.18,0,0,0,.54-2.49c0-.73-.21-1.09-.64-1.09a1.12,1.12,0,0,0-.59.14,1.8,1.8,0,0,0-.46.53.13.13,0,0,1-.2,0,.28.28,0,0,1,0-.26,3.74,3.74,0,0,1,1-1,2.45,2.45,0,0,1,1.48-.52,1.12,1.12,0,0,1,1,.48,2,2,0,0,1,.35,1.19,5.44,5.44,0,0,1-.61,2.45,10.24,10.24,0,0,1-1.61,2.37,13.85,13.85,0,0,1-2.34,2.07A16.09,16.09,0,0,1,278.64,438.72Z" transform="translate(-227.35 -384.13)"/><path class="cls-2" d="M295.7,430.68q0,2.38-6.09,3.27,0,.42-.06.84c0,.28,0,.57,0,.88a2.58,2.58,0,0,0,.48,1.67,1.87,1.87,0,0,0,1.53.59,3.27,3.27,0,0,0,1.58-.46,4,4,0,0,0,1.29-1.18.16.16,0,0,1,.24.07.47.47,0,0,1,0,.31,7.3,7.3,0,0,1-2,1.86,4.84,4.84,0,0,1-2.64.78,2.55,2.55,0,0,1-2-.73,3.15,3.15,0,0,1-.62-2.08,7.72,7.72,0,0,1,.52-2.7,11.72,11.72,0,0,1,1.35-2.58,7.62,7.62,0,0,1,1.9-1.9,3.76,3.76,0,0,1,2.16-.73,2.37,2.37,0,0,1,1.75.65A2,2,0,0,1,295.7,430.68Zm-3.51-1a2,2,0,0,0-1.6.91,6,6,0,0,0-.9,2.78,7.29,7.29,0,0,0,2.86-.77,1.65,1.65,0,0,0,.93-1.41,1.6,1.6,0,0,0-.36-1.06A1.16,1.16,0,0,0,292.19,429.67Z" transform="translate(-227.35 -384.13)"/><path class="cls-3" d="M301.18,429.8a9.48,9.48,0,0,1-.12,1.42c-.08.54-.19,1.08-.32,1.64a11.2,11.2,0,0,1,1.77-3.14,2.76,2.76,0,0,1,2.1-1.13,1.33,1.33,0,0,1,.93.29,1,1,0,0,1,.32.75,2.81,2.81,0,0,1-.3,1.09,4.47,4.47,0,0,1-.51.92.12.12,0,0,1-.16,0,.19.19,0,0,1-.08-.14.67.67,0,0,0-.22-.51.94.94,0,0,0-.67-.21c-.94,0-1.79.67-2.56,2a24,24,0,0,0-2.11,5.72.58.58,0,0,1-.29.36,2.69,2.69,0,0,1-.54.25,4.16,4.16,0,0,1-.63.17,3.06,3.06,0,0,1-.56.06c-.3,0-.38-.17-.24-.5.24-.59.47-1.22.7-1.91s.44-1.37.63-2.07.35-1.38.48-2,.24-1.27.32-1.83a4.47,4.47,0,0,0,.06-1,.31.31,0,0,0-.34-.34,1.31,1.31,0,0,0-.83.36,4.36,4.36,0,0,0-.78.9.22.22,0,0,1-.3,0,.19.19,0,0,1-.06-.27,6.64,6.64,0,0,1,.58-.69,5.61,5.61,0,0,1,.77-.67,4.63,4.63,0,0,1,.88-.52,2.3,2.3,0,0,1,.95-.21,1.06,1.06,0,0,1,.89.31A1.46,1.46,0,0,1,301.18,429.8Z" transform="translate(-227.35 -384.13)"/><path class="cls-3" d="M316.5,436.67a.17.17,0,0,1,.21,0,.23.23,0,0,1,.08.25,6.82,6.82,0,0,1-1.62,1.74,2.9,2.9,0,0,1-1.69.65c-.62,0-1-.45-1.19-1.36a7.26,7.26,0,0,1,.26-3.25,15.91,15.91,0,0,1-2.36,3.08,5.06,5.06,0,0,1-2.68,1.53,1.65,1.65,0,0,1-1.49-.92,4.27,4.27,0,0,1-.52-2.14,6.34,6.34,0,0,1,.64-2.74,8.86,8.86,0,0,1,1.71-2.45,9.68,9.68,0,0,1,2.38-1.78,5.66,5.66,0,0,1,2.65-.69,3.19,3.19,0,0,1,2.21.71,3.66,3.66,0,0,1,1-.5,3.57,3.57,0,0,1,1.11-.21c.11,0,.16.07.16.21a13.17,13.17,0,0,0-1.59,2.57,16.78,16.78,0,0,0-1,2.68,11.85,11.85,0,0,0-.44,2.29,2.36,2.36,0,0,0,.16,1.38c.13.17.36.21.68.14S315.94,437.4,316.5,436.67Zm-7.74,1.09a2,2,0,0,0,1.19-.63,11.08,11.08,0,0,0,1.47-1.67,25.91,25.91,0,0,0,1.52-2.35,24.91,24.91,0,0,0,1.31-2.64,1.55,1.55,0,0,0-.75-.88,2.7,2.7,0,0,0-1.35-.33,3.29,3.29,0,0,0-1.73.48,4.45,4.45,0,0,0-1.4,1.34,6.78,6.78,0,0,0-.92,2.05,9.43,9.43,0,0,0-.35,2.62,2.91,2.91,0,0,0,.31,1.46C308.26,437.58,308.49,437.76,308.76,437.76Z" transform="translate(-227.35 -384.13)"/><path class="cls-3" d="M323.68,428.59a3.4,3.4,0,0,1,1.43.25c.37.16.55.37.55.63a3.18,3.18,0,0,1-.22,1,8.56,8.56,0,0,1-.43,1,.16.16,0,0,1-.2,0,.24.24,0,0,1-.12-.23,2.34,2.34,0,0,0,.12-.84,1.49,1.49,0,0,0-.3-1,1,1,0,0,0-.83-.38,1.49,1.49,0,0,0-1.11.44,1.7,1.7,0,0,0-.42,1.23,2.53,2.53,0,0,0,.34,1.28c.23.41.49.81.77,1.22a11.61,11.61,0,0,1,.78,1.29,3.29,3.29,0,0,1,.37,1.58,2.72,2.72,0,0,1-1.17,2.34,5.14,5.14,0,0,1-3.07.84,4.21,4.21,0,0,1-2.15-.46c-.53-.31-.79-.64-.79-1a1.35,1.35,0,0,1,.12-.46,6.27,6.27,0,0,1,.32-.63c.14-.22.29-.44.45-.67a2.44,2.44,0,0,1,.52-.54.14.14,0,0,1,.22,0,.19.19,0,0,1,0,.25,1.78,1.78,0,0,0-.36.53,1.82,1.82,0,0,0-.12.73,1.65,1.65,0,0,0,1.73,1.72,2.2,2.2,0,0,0,1.64-.61,2.07,2.07,0,0,0,.58-1.49,3.25,3.25,0,0,0-.34-1.48c-.23-.47-.48-.91-.75-1.35s-.52-.87-.74-1.31a3.11,3.11,0,0,1-.35-1.43,2.29,2.29,0,0,1,.89-1.82A4,4,0,0,1,323.68,428.59Z" transform="translate(-227.35 -384.13)"/><path class="cls-3" d="M326.71,438.93a97.76,97.76,0,0,1,4.17-13,59.64,59.64,0,0,1,5-9.85,27.39,27.39,0,0,1,5.3-6.26,8.26,8.26,0,0,1,5.1-2.2,2.31,2.31,0,0,1,2.4,1.66,2.83,2.83,0,0,1,.06,1.48,3.72,3.72,0,0,1-.6,1.43.22.22,0,0,1-.24.08.2.2,0,0,1-.12-.21,1.74,1.74,0,0,0-.45-1.59,2.56,2.56,0,0,0-2.05-.75,7.72,7.72,0,0,0-4.14,1.21,13.23,13.23,0,0,0-3.81,4,40.5,40.5,0,0,0-3.63,7.5q-1.77,4.68-3.63,11.63a15.39,15.39,0,0,1,1.39-2.14,11.05,11.05,0,0,1,1.72-1.76,8,8,0,0,1,2-1.19,5.48,5.48,0,0,1,2.18-.44.9.9,0,0,1,.71.25.82.82,0,0,1,.22.58,2.62,2.62,0,0,1-.36,1.22,17.79,17.79,0,0,0-1.38,3.18,10.11,10.11,0,0,0-.52,3,3.21,3.21,0,0,0,.12,1,.46.46,0,0,0,.45.38,1.41,1.41,0,0,0,.88-.44,4.5,4.5,0,0,0,.81-1,.18.18,0,0,1,.24,0,.2.2,0,0,1,.08.23,5.41,5.41,0,0,1-1.47,1.64,3,3,0,0,1-1.71.71,1.59,1.59,0,0,1-1.13-.4,1.74,1.74,0,0,1-.45-1.36,10.42,10.42,0,0,1,.14-1.61c.1-.57.22-1.14.37-1.7s.32-1.11.52-1.65a10.28,10.28,0,0,1,.67-1.49,2.44,2.44,0,0,0,.2-.71c0-.25-.14-.38-.41-.38a2.93,2.93,0,0,0-1.65.61,7.73,7.73,0,0,0-1.73,1.71,17.59,17.59,0,0,0-1.64,2.67,21.13,21.13,0,0,0-1.35,3.43c-.05.2-.27.39-.64.59a2.74,2.74,0,0,1-1.25.29C326.76,439.31,326.65,439.18,326.71,438.93Z" transform="translate(-227.35 -384.13)"/><path class="cls-3" d="M347.76,428.8c.13.05.18.13.16.23s-.15.17-.37.23c-.4,0-.86,0-1.39,0l-1.67.12a38.21,38.21,0,0,0-1.33,4,12.87,12.87,0,0,0-.53,3.17c0,1,.35,1.42,1.05,1.42s1.48-.63,2.34-1.88a.16.16,0,0,1,.22,0c.07.05.09.15.06.29a7.32,7.32,0,0,1-1.73,2,3.28,3.28,0,0,1-2.06.86,2.06,2.06,0,0,1-1.55-.52,2,2,0,0,1-.5-1.45A13.77,13.77,0,0,1,341,434a39,39,0,0,1,1.45-4.36,18.72,18.72,0,0,0-1.93.34c-.14,0-.17-.1-.1-.21a1.21,1.21,0,0,1,.36-.36,3.25,3.25,0,0,1,.62-.33,1.83,1.83,0,0,1,.69-.15h.32a1.24,1.24,0,0,0,.33,0c.34-.81.71-1.59,1.08-2.35s.76-1.43,1.13-2a2.29,2.29,0,0,1,.67-.52,3.94,3.94,0,0,1,.83-.36,3,3,0,0,1,.66-.14c.18,0,.25,0,.22.14q-.68,1.09-1.35,2.43c-.44.89-.87,1.83-1.27,2.81.51,0,1,0,1.55,0Z" transform="translate(-227.35 -384.13)"/><path class="cls-3" d="M351.83,429.8a9.48,9.48,0,0,1-.12,1.42c-.08.54-.19,1.08-.33,1.64a11.2,11.2,0,0,1,1.78-3.14,2.73,2.73,0,0,1,2.1-1.13,1.29,1.29,0,0,1,.92.29,1,1,0,0,1,.33.75,2.68,2.68,0,0,1-.31,1.09,4.56,4.56,0,0,1-.5.92.12.12,0,0,1-.16,0,.16.16,0,0,1-.08-.14.7.7,0,0,0-.22-.51.94.94,0,0,0-.67-.21c-.94,0-1.79.67-2.56,2a23.92,23.92,0,0,0-2.12,5.72.53.53,0,0,1-.28.36,2.69,2.69,0,0,1-.54.25,4.5,4.5,0,0,1-.63.17,3.06,3.06,0,0,1-.56.06c-.3,0-.38-.17-.25-.5.25-.59.48-1.22.71-1.91s.44-1.37.62-2.07.35-1.38.49-2,.24-1.27.32-1.83a4.47,4.47,0,0,0,.06-1,.32.32,0,0,0-.34-.34,1.31,1.31,0,0,0-.83.36,4.36,4.36,0,0,0-.78.9.23.23,0,0,1-.31,0,.2.2,0,0,1-.06-.27,6.82,6.82,0,0,1,.59-.69,6.17,6.17,0,0,1,.76-.67,5,5,0,0,1,.89-.52,2.3,2.3,0,0,1,.95-.21,1.08,1.08,0,0,1,.89.31A1.46,1.46,0,0,1,351.83,429.8Z" transform="translate(-227.35 -384.13)"/><path class="cls-3" d="M367.15,436.67a.15.15,0,0,1,.2,0,.21.21,0,0,1,.08.25,6.62,6.62,0,0,1-1.61,1.74,2.9,2.9,0,0,1-1.69.65c-.62,0-1-.45-1.19-1.36a7.12,7.12,0,0,1,.26-3.25,16.32,16.32,0,0,1-2.36,3.08,5.1,5.1,0,0,1-2.68,1.53,1.64,1.64,0,0,1-1.49-.92,4.27,4.27,0,0,1-.53-2.14,6.36,6.36,0,0,1,.65-2.74,8.86,8.86,0,0,1,1.71-2.45,9.49,9.49,0,0,1,2.38-1.78,5.62,5.62,0,0,1,2.64-.69,3.22,3.22,0,0,1,2.22.71,3.66,3.66,0,0,1,1-.5,3.57,3.57,0,0,1,1.11-.21c.11,0,.16.07.16.21a13.17,13.17,0,0,0-1.59,2.57,16.78,16.78,0,0,0-1,2.68,12.76,12.76,0,0,0-.45,2.29,2.34,2.34,0,0,0,.17,1.38c.13.17.36.21.68.14S366.59,437.4,367.15,436.67Zm-7.74,1.09a2,2,0,0,0,1.19-.63,11.08,11.08,0,0,0,1.47-1.67,25.91,25.91,0,0,0,1.51-2.35,21.59,21.59,0,0,0,1.31-2.64,1.49,1.49,0,0,0-.74-.88,2.7,2.7,0,0,0-1.35-.33,3.36,3.36,0,0,0-1.74.48,4.42,4.42,0,0,0-1.39,1.34,7,7,0,0,0-.93,2.05,9.83,9.83,0,0,0-.34,2.62,3,3,0,0,0,.3,1.46C358.91,437.58,359.14,437.76,359.41,437.76Z" transform="translate(-227.35 -384.13)"/></svg>